<svg xmlns="http://www.w3.org/2000/svg" xmlns:xlink="http://www.w3.org/1999/xlink" width="500" zoomAndPan="magnify" viewBox="0 0 375 374.999991" height="500" preserveAspectRatio="xMidYMid meet" version="1.0"><defs><g/><clipPath id="4742b6335e"><path d="M 70.746094 125 L 304.328125 125 L 304.328125 227.226562 L 70.746094 227.226562 Z M 70.746094 125 " clip-rule="nonzero"/></clipPath><clipPath id="12080b1a07"><path d="M 175 74 L 200 74 L 200 96.753906 L 175 96.753906 Z M 175 74 " clip-rule="nonzero"/></clipPath><clipPath id="39dd97fa20"><path d="M 160.476562 140 L 214.476562 140 L 214.476562 212 L 160.476562 212 Z M 160.476562 140 " clip-rule="nonzero"/></clipPath></defs><g clip-path="url(#4742b6335e)"><path fill="#5271ff" d="M 300.117188 125.867188 L 74.957031 125.867188 C 72.136719 125.867188 70.746094 127.378906 70.746094 130.507812 C 70.746094 133.882812 72.28125 135.5 74.6875 135.707031 C 78.6875 136.058594 88.601562 136.929688 93.578125 137.34375 C 95.382812 137.507812 96.730469 138.503906 97.0625 140.117188 C 99.300781 151.136719 106.289062 186.308594 109.773438 202.402344 C 114.316406 223.363281 125.015625 227.441406 141.105469 227.441406 L 233.945312 227.441406 C 250.058594 227.441406 260.738281 223.363281 265.300781 202.402344 C 268.785156 186.308594 275.753906 151.136719 278.011719 140.117188 C 278.324219 138.523438 279.671875 137.507812 281.496094 137.34375 C 286.472656 136.929688 296.386719 136.058594 300.386719 135.707031 C 302.792969 135.5 304.328125 133.882812 304.328125 130.507812 C 304.347656 127.378906 302.9375 125.867188 300.117188 125.867188 " fill-opacity="1" fill-rule="nonzero"/></g><path fill="#5271ff" d="M 100.835938 121.703125 C 122.773438 120.441406 188.554688 116.671875 188.554688 116.671875 L 188.886719 116.671875 L 276.644531 111.636719 C 279.089844 111.515625 278.757812 110.210938 278.550781 109.609375 C 274.113281 97.058594 233.46875 93.183594 191.871094 95.128906 L 192.222656 95.109375 L 191.707031 85.996094 L 199.980469 85.5 C 204.75 85.230469 205.515625 81.335938 201.847656 78.871094 C 198.546875 76.65625 193.136719 74.789062 186.519531 75.082031 L 186.519531 75.058594 C 186.457031 75.058594 186.398438 75.082031 186.355469 75.082031 C 186.292969 75.082031 186.230469 75.082031 186.167969 75.082031 L 186.1875 75.101562 C 179.574219 75.558594 174.410156 78.023438 171.382812 80.609375 C 168.023438 83.488281 169.207031 87.261719 173.976562 86.992188 L 182.269531 86.535156 L 182.789062 95.648438 L 183.140625 95.628906 C 142.453125 98.363281 103.386719 108.34375 98.949219 119.445312 C 98.617188 120.234375 98.71875 121.828125 100.835938 121.703125 " fill-opacity="1" fill-rule="nonzero"/><path fill="#5271ff" d="M 228.949219 82.144531 C 228.015625 83.699219 228.511719 85.726562 230.070312 86.679688 C 230.585938 86.992188 231.1875 87.15625 231.769531 87.15625 C 232.890625 87.15625 233.96875 86.597656 234.589844 85.5625 C 242.699219 72.242188 237.78125 64.394531 233.820312 58.074219 C 229.882812 51.757812 226.75 46.765625 234.484375 35.6875 C 235.523438 34.171875 235.148438 32.121094 233.65625 31.085938 C 232.164062 30.050781 230.109375 30.425781 229.074219 31.914062 C 218.871094 46.582031 224.074219 54.886719 228.242188 61.578125 C 231.976562 67.5625 234.941406 72.304688 228.949219 82.144531 " fill-opacity="1" fill-rule="nonzero"/><path fill="#5271ff" d="M 250.308594 84.214844 C 249.375 85.769531 249.851562 87.796875 251.40625 88.730469 C 251.945312 89.0625 252.527344 89.207031 253.128906 89.207031 C 254.226562 89.207031 255.328125 88.648438 255.949219 87.632812 C 264.035156 74.316406 259.121094 66.445312 255.179688 60.148438 C 251.21875 53.808594 248.109375 48.839844 255.824219 37.734375 C 256.882812 36.246094 256.488281 34.195312 255.015625 33.160156 C 253.5 32.101562 251.449219 32.496094 250.410156 33.964844 C 240.210938 48.632812 245.414062 56.9375 249.601562 63.625 C 253.335938 69.613281 256.300781 74.355469 250.308594 84.214844 " fill-opacity="1" fill-rule="nonzero"/><path fill="#5271ff" d="M 271.066406 90.386719 C 270.113281 91.941406 270.609375 93.972656 272.1875 94.921875 C 272.703125 95.234375 273.304688 95.398438 273.886719 95.398438 C 274.984375 95.398438 276.085938 94.839844 276.6875 93.804688 C 284.792969 80.488281 279.898438 72.636719 275.9375 66.320312 C 271.976562 60.003906 268.867188 55.011719 276.601562 43.910156 C 277.617188 42.417969 277.265625 40.367188 275.753906 39.332031 C 274.28125 38.296875 272.207031 38.667969 271.191406 40.160156 C 260.988281 54.824219 266.171875 63.128906 270.339844 69.820312 C 274.09375 75.804688 277.058594 80.550781 271.066406 90.386719 " fill-opacity="1" fill-rule="nonzero"/><g clip-path="url(#12080b1a07)"><path fill="#ff1616" d="M 199.25 80.039062 C 197.902344 72.90625 189.4375 72.789062 187.351562 79.457031 C 185.265625 72.789062 176.800781 72.90625 175.453125 80.039062 C 174.226562 86.511719 187.351562 96.722656 187.351562 96.722656 C 187.351562 96.722656 200.476562 86.511719 199.25 80.039062 Z M 199.25 80.039062 " fill-opacity="1" fill-rule="nonzero"/></g><g clip-path="url(#39dd97fa20)"><path fill="#ffffff" d="M 185.898438 163.5 C 185.917969 163.316406 185.882812 163.136719 185.792969 162.976562 C 185.792969 162.976562 176.117188 146.273438 173.496094 141.75 C 172.90625 140.730469 171.601562 140.382812 170.578125 140.972656 C 170.089844 141.253906 169.730469 141.71875 169.585938 142.265625 C 169.4375 142.808594 169.515625 143.390625 169.796875 143.878906 C 171.738281 147.230469 177.480469 157.140625 179.082031 159.910156 C 179.082031 159.910156 178.300781 160.363281 178.300781 160.363281 C 178.300781 160.363281 169.03125 144.363281 169.03125 144.363281 C 168.746094 143.867188 168.269531 143.503906 167.714844 143.355469 C 167.15625 143.207031 166.5625 143.28125 166.0625 143.570312 C 165.582031 143.847656 165.230469 144.304688 165.085938 144.839844 C 164.941406 145.375 165.015625 145.945312 165.296875 146.425781 C 165.296875 146.425781 174.601562 162.492188 174.601562 162.492188 C 174.601562 162.492188 173.816406 162.945312 173.816406 162.945312 C 173.816406 162.945312 164.53125 146.910156 164.53125 146.910156 C 164.246094 146.421875 163.78125 146.066406 163.234375 145.917969 C 162.6875 145.773438 162.105469 145.851562 161.613281 146.132812 C 161.285156 146.320312 161.121094 146.707031 161.222656 147.074219 C 161.320312 147.441406 161.652344 147.695312 162.035156 147.695312 C 161.652344 147.695312 161.320312 147.441406 161.222656 147.074219 C 161.121094 146.707031 161.285156 146.320312 161.613281 146.132812 C 161.121094 146.414062 160.765625 146.878906 160.617188 147.425781 C 160.472656 147.96875 160.546875 148.550781 160.832031 149.039062 C 163.449219 153.5625 173.125 170.265625 173.125 170.265625 C 173.21875 170.425781 173.355469 170.546875 173.523438 170.621094 L 179.21875 173.042969 C 179.21875 173.042969 199.785156 208.550781 199.785156 208.550781 C 201.445312 211.421875 205.128906 212.40625 208.003906 210.75 C 207.753906 210.890625 207.585938 210.859375 207.585938 210.859375 C 207.886719 210.859375 208.164062 210.699219 208.3125 210.441406 C 208.464844 210.183594 208.464844 209.863281 208.3125 209.601562 C 208.3125 209.601562 187.089844 172.957031 185.15625 169.625 C 185.15625 169.625 185.898438 163.5 185.898438 163.5 Z M 170.34375 209.644531 L 184.5 185.199219 C 184.734375 184.796875 184.597656 184.285156 184.195312 184.054688 C 183.789062 183.820312 183.277344 183.957031 183.042969 184.359375 L 168.421875 209.601562 C 168.273438 209.863281 168.273438 210.183594 168.421875 210.441406 C 168.574219 210.699219 168.851562 210.859375 169.152344 210.859375 C 169.152344 210.859375 168.988281 210.890625 168.746094 210.753906 C 170.113281 211.542969 171.757812 211.757812 173.296875 211.347656 C 174.839844 210.933594 176.152344 209.929688 176.953125 208.550781 C 180.816406 201.875 187.652344 190.074219 187.652344 190.074219 C 187.886719 189.675781 187.746094 189.164062 187.347656 188.929688 C 186.945312 188.699219 186.429688 188.835938 186.195312 189.238281 C 186.195312 189.238281 179.359375 201.039062 175.496094 207.714844 C 174.921875 208.707031 173.972656 209.429688 172.863281 209.726562 C 172.027344 209.949219 171.148438 209.917969 170.34375 209.644531 Z M 206.394531 209.644531 C 204.472656 210.296875 202.292969 209.53125 201.242188 207.714844 C 195.171875 197.234375 180.535156 171.960938 180.535156 171.960938 C 180.441406 171.804688 180.304688 171.679688 180.136719 171.609375 L 174.441406 169.1875 C 174.441406 169.1875 162.289062 148.199219 162.289062 148.199219 C 162.226562 148.097656 162.210938 147.972656 162.242188 147.859375 C 162.273438 147.742188 162.351562 147.644531 162.453125 147.582031 C 162.328125 147.65625 162.179688 147.695312 162.035156 147.695312 L 162.453125 147.582031 C 162.558594 147.523438 162.683594 147.507812 162.796875 147.539062 C 162.914062 147.570312 163.011719 147.644531 163.074219 147.75 C 165.339844 151.660156 172.78125 164.507812 172.78125 164.507812 C 173.011719 164.910156 173.527344 165.046875 173.929688 164.816406 L 176.171875 163.523438 C 176.574219 163.292969 176.710938 162.78125 176.480469 162.378906 C 176.480469 162.378906 168.996094 149.460938 166.753906 145.585938 C 166.695312 145.492188 166.683594 145.378906 166.710938 145.273438 C 166.738281 145.167969 166.808594 145.078125 166.902344 145.023438 C 167.015625 144.957031 167.152344 144.941406 167.277344 144.972656 C 167.402344 145.007812 167.511719 145.089844 167.574219 145.203125 L 177.261719 161.929688 C 177.496094 162.328125 178.007812 162.464844 178.414062 162.234375 L 180.652344 160.945312 C 181.054688 160.714844 181.195312 160.199219 180.960938 159.800781 C 180.960938 159.800781 173.519531 146.953125 171.253906 143.039062 C 171.195312 142.9375 171.179688 142.8125 171.210938 142.699219 C 171.242188 142.582031 171.316406 142.484375 171.421875 142.421875 C 171.636719 142.300781 171.914062 142.375 172.039062 142.589844 L 184.195312 163.574219 L 183.453125 169.699219 C 183.433594 169.882812 183.46875 170.0625 183.5625 170.222656 Z M 191.53125 169.707031 L 189.570312 173.089844 C 189.339844 173.492188 189.476562 174.003906 189.878906 174.234375 C 190.28125 174.46875 190.796875 174.328125 191.027344 173.929688 L 193.175781 170.222656 L 193.097656 170.265625 C 193.253906 170.089844 193.351562 169.84375 193.234375 169.507812 C 190.445312 161.34375 193.398438 152.328125 200.476562 147.375 C 202.253906 146.132812 203.996094 145.066406 205.519531 144.429688 C 206.441406 144.042969 207.265625 143.808594 207.960938 143.824219 C 209.417969 143.859375 210.976562 144.777344 211.746094 146.011719 C 212.117188 146.605469 212.339844 147.4375 212.472656 148.421875 C 212.691406 150.050781 212.644531 152.074219 212.453125 154.210938 C 211.695312 162.808594 205.335938 169.867188 196.84375 171.542969 L 196.203125 171.960938 L 192.191406 178.890625 C 191.957031 179.289062 192.097656 179.804688 192.5 180.035156 C 192.898438 180.265625 193.414062 180.128906 193.648438 179.726562 L 197.472656 173.125 C 206.542969 171.207031 213.316406 163.597656 214.128906 154.359375 C 214.476562 150.460938 214.296875 146.917969 213.175781 145.125 C 212.121094 143.4375 209.988281 142.195312 207.996094 142.148438 C 205.910156 142.101562 202.738281 143.742188 199.511719 146.003906 C 191.917969 151.3125 188.695312 160.929688 191.53125 169.707031 Z M 199.550781 152.570312 C 201.976562 149.808594 204.371094 148.007812 206.792969 147.6875 C 207.253906 147.628906 207.578125 147.207031 207.519531 146.746094 C 207.457031 146.289062 207.035156 145.964844 206.574219 146.027344 C 203.820312 146.390625 201.039062 148.328125 198.285156 151.464844 C 197.980469 151.8125 198.015625 152.34375 198.363281 152.648438 C 198.714844 152.953125 199.246094 152.917969 199.550781 152.570312 Z M 199.550781 152.570312 " fill-opacity="1" fill-rule="evenodd"/></g><g fill="#272424" fill-opacity="1"><g transform="translate(73.732136, 299.344078)"><g><path d="M 24.6875 -19.75 C 26.945312 -19.113281 28.722656 -18.003906 30.015625 -16.421875 C 31.304688 -14.847656 31.953125 -12.96875 31.953125 -10.78125 C 31.953125 -8.757812 31.398438 -6.929688 30.296875 -5.296875 C 29.203125 -3.671875 27.53125 -2.378906 25.28125 -1.421875 C 23.039062 -0.472656 20.289062 0 17.03125 0 L 3.453125 0 L 3.453125 -37.15625 L 16.453125 -37.15625 C 19.359375 -37.15625 21.851562 -36.753906 23.9375 -35.953125 C 26.019531 -35.160156 27.609375 -34.035156 28.703125 -32.578125 C 29.804688 -31.128906 30.359375 -29.453125 30.359375 -27.546875 C 30.359375 -25.671875 29.84375 -24.0625 28.8125 -22.71875 C 27.789062 -21.375 26.414062 -20.382812 24.6875 -19.75 Z M 12.734375 -29.453125 L 12.734375 -19.90625 L 15.765625 -19.90625 C 17.316406 -19.90625 18.5625 -20.375 19.5 -21.3125 C 20.4375 -22.25 20.90625 -23.375 20.90625 -24.6875 C 20.90625 -25.988281 20.4375 -27.109375 19.5 -28.046875 C 18.5625 -28.984375 17.316406 -29.453125 15.765625 -29.453125 Z M 16.671875 -7.703125 C 18.398438 -7.703125 19.800781 -8.25 20.875 -9.34375 C 21.957031 -10.4375 22.5 -11.742188 22.5 -13.265625 C 22.5 -14.785156 21.957031 -16.09375 20.875 -17.1875 C 19.800781 -18.289062 18.398438 -18.84375 16.671875 -18.84375 L 12.734375 -18.84375 L 12.734375 -7.703125 Z M 16.671875 -7.703125 "/></g></g></g><g fill="#272424" fill-opacity="1"><g transform="translate(106.097576, 299.344078)"><g><path d="M 16.234375 0.6875 C 13.617188 0.6875 11.132812 0.0976562 8.78125 -1.078125 C 6.425781 -2.265625 4.53125 -3.957031 3.09375 -6.15625 C 1.664062 -8.351562 0.953125 -10.898438 0.953125 -13.796875 C 0.953125 -16.703125 1.664062 -19.25 3.09375 -21.4375 C 4.53125 -23.632812 6.425781 -25.328125 8.78125 -26.515625 C 11.132812 -27.703125 13.617188 -28.296875 16.234375 -28.296875 C 18.859375 -28.296875 21.347656 -27.703125 23.703125 -26.515625 C 26.054688 -25.328125 27.945312 -23.632812 29.375 -21.4375 C 30.8125 -19.25 31.53125 -16.703125 31.53125 -13.796875 C 31.53125 -10.898438 30.8125 -8.351562 29.375 -6.15625 C 27.945312 -3.957031 26.054688 -2.265625 23.703125 -1.078125 C 21.347656 0.0976562 18.859375 0.6875 16.234375 0.6875 Z M 16.234375 -7.265625 C 18.078125 -7.265625 19.609375 -7.882812 20.828125 -9.125 C 22.054688 -10.363281 22.671875 -11.921875 22.671875 -13.796875 C 22.671875 -15.671875 22.054688 -17.226562 20.828125 -18.46875 C 19.609375 -19.707031 18.078125 -20.328125 16.234375 -20.328125 C 14.398438 -20.328125 12.867188 -19.707031 11.640625 -18.46875 C 10.421875 -17.226562 9.8125 -15.671875 9.8125 -13.796875 C 9.8125 -11.921875 10.421875 -10.363281 11.640625 -9.125 C 12.867188 -7.882812 14.398438 -7.265625 16.234375 -7.265625 Z M 16.234375 -7.265625 "/></g></g></g><g fill="#272424" fill-opacity="1"><g transform="translate(137.507963, 299.344078)"><g/></g></g><g fill="#272424" fill-opacity="1"><g transform="translate(151.568177, 299.344078)"><g><path d="M 21.125 0.6875 C 17.582031 0.6875 14.296875 -0.109375 11.265625 -1.703125 C 8.242188 -3.296875 5.832031 -5.554688 4.03125 -8.484375 C 2.226562 -11.421875 1.328125 -14.785156 1.328125 -18.578125 C 1.328125 -22.359375 2.226562 -25.71875 4.03125 -28.65625 C 5.832031 -31.59375 8.242188 -33.859375 11.265625 -35.453125 C 14.296875 -37.046875 17.582031 -37.84375 21.125 -37.84375 C 24.34375 -37.84375 27.304688 -37.203125 30.015625 -35.921875 C 32.722656 -34.648438 34.988281 -32.851562 36.8125 -30.53125 C 38.632812 -28.21875 39.847656 -25.5625 40.453125 -22.5625 L 30.890625 -22.5625 C 30.253906 -24.507812 29.078125 -26.128906 27.359375 -27.421875 C 25.640625 -28.710938 23.5625 -29.359375 21.125 -29.359375 C 19.175781 -29.359375 17.414062 -28.890625 15.84375 -27.953125 C 14.269531 -27.015625 13.03125 -25.726562 12.125 -24.09375 C 11.226562 -22.46875 10.78125 -20.628906 10.78125 -18.578125 C 10.78125 -16.523438 11.226562 -14.679688 12.125 -13.046875 C 13.03125 -11.421875 14.269531 -10.140625 15.84375 -9.203125 C 17.414062 -8.265625 19.175781 -7.796875 21.125 -7.796875 C 23.5625 -7.796875 25.640625 -8.441406 27.359375 -9.734375 C 29.078125 -11.023438 30.253906 -12.644531 30.890625 -14.59375 L 40.453125 -14.59375 C 39.847656 -11.582031 38.632812 -8.914062 36.8125 -6.59375 C 34.988281 -4.28125 32.722656 -2.488281 30.015625 -1.21875 C 27.304688 0.0507812 24.34375 0.6875 21.125 0.6875 Z M 21.125 0.6875 "/></g></g></g><g fill="#272424" fill-opacity="1"><g transform="translate(191.998532, 299.344078)"><g><path d="M 15.8125 0.6875 C 13.050781 0.6875 10.65625 0.128906 8.625 -0.984375 C 6.59375 -2.097656 5.046875 -3.671875 3.984375 -5.703125 C 2.921875 -7.742188 2.390625 -10.109375 2.390625 -12.796875 L 2.390625 -27.59375 L 11.25 -27.59375 L 11.25 -12.578125 C 11.25 -10.910156 11.664062 -9.609375 12.5 -8.671875 C 13.332031 -7.734375 14.4375 -7.265625 15.8125 -7.265625 C 17.15625 -7.265625 18.25 -7.742188 19.09375 -8.703125 C 19.945312 -9.660156 20.375 -10.953125 20.375 -12.578125 L 20.375 -27.59375 L 29.25 -27.59375 L 29.25 -12.796875 C 29.25 -10.109375 28.71875 -7.742188 27.65625 -5.703125 C 26.59375 -3.671875 25.039062 -2.097656 23 -0.984375 C 20.96875 0.128906 18.570312 0.6875 15.8125 0.6875 Z M 15.8125 0.6875 "/></g></g></g><g fill="#272424" fill-opacity="1"><g transform="translate(222.559982, 299.344078)"><g><path d="M 35.671875 -28.296875 C 37.722656 -28.296875 39.515625 -27.816406 41.046875 -26.859375 C 42.585938 -25.898438 43.78125 -24.550781 44.625 -22.8125 C 45.476562 -21.082031 45.90625 -19.085938 45.90625 -16.828125 L 45.90625 0 L 37.046875 0 L 37.046875 -15.234375 C 37.046875 -16.828125 36.679688 -18.070312 35.953125 -18.96875 C 35.234375 -19.875 34.253906 -20.328125 33.015625 -20.328125 C 31.804688 -20.328125 30.785156 -19.863281 29.953125 -18.9375 C 29.128906 -18.019531 28.71875 -16.785156 28.71875 -15.234375 L 28.71875 0 L 19.84375 0 L 19.84375 -15.234375 C 19.84375 -16.828125 19.476562 -18.070312 18.75 -18.96875 C 18.03125 -19.875 17.050781 -20.328125 15.8125 -20.328125 C 14.613281 -20.328125 13.597656 -19.863281 12.765625 -18.9375 C 11.929688 -18.019531 11.515625 -16.785156 11.515625 -15.234375 L 11.515625 0 L 2.65625 0 L 2.65625 -27.59375 L 10.609375 -27.59375 L 10.609375 -24.6875 C 12.703125 -27.09375 15.320312 -28.296875 18.46875 -28.296875 C 20.164062 -28.296875 21.75 -27.882812 23.21875 -27.0625 C 24.6875 -26.25 25.828125 -25.15625 26.640625 -23.78125 C 29.085938 -26.789062 32.097656 -28.296875 35.671875 -28.296875 Z M 35.671875 -28.296875 "/></g></g></g><g fill="#272424" fill-opacity="1"><g transform="translate(269.781854, 299.344078)"><g><path d="M 15.8125 -28.296875 C 18.570312 -28.296875 21.09375 -27.640625 23.375 -26.328125 C 25.65625 -25.015625 27.441406 -23.234375 28.734375 -20.984375 C 30.023438 -18.742188 30.617188 -16.257812 30.515625 -13.53125 L 9.8125 -13.53125 C 9.851562 -11.40625 10.421875 -9.738281 11.515625 -8.53125 C 12.609375 -7.332031 14.078125 -6.734375 15.921875 -6.734375 C 17.128906 -6.734375 18.203125 -7 19.140625 -7.53125 C 20.078125 -8.0625 20.828125 -8.820312 21.390625 -9.8125 L 30.09375 -9.8125 C 29.03125 -6.457031 27.285156 -3.867188 24.859375 -2.046875 C 22.441406 -0.222656 19.425781 0.6875 15.8125 0.6875 C 13.164062 0.6875 10.707031 0.0859375 8.4375 -1.109375 C 6.175781 -2.316406 4.363281 -4.015625 3 -6.203125 C 1.632812 -8.398438 0.953125 -10.929688 0.953125 -13.796875 C 0.953125 -16.660156 1.632812 -19.191406 3 -21.390625 C 4.363281 -23.585938 6.175781 -25.285156 8.4375 -26.484375 C 10.707031 -27.691406 13.164062 -28.296875 15.8125 -28.296875 Z M 15.8125 -20.859375 C 14.113281 -20.859375 12.722656 -20.304688 11.640625 -19.203125 C 10.566406 -18.109375 9.957031 -16.570312 9.8125 -14.59375 L 21.8125 -14.59375 C 21.707031 -16.46875 21.132812 -17.976562 20.09375 -19.125 C 19.050781 -20.28125 17.625 -20.859375 15.8125 -20.859375 Z M 15.8125 -20.859375 "/></g></g></g><g fill="#272424" fill-opacity="1"><g transform="translate(104.121184, 330.981662)"><g><path d="M 9.09375 -13.96875 L 9.09375 -11.171875 L 4.203125 -11.171875 L 4.203125 -8.40625 L 8.71875 -8.40625 L 8.71875 -5.609375 L 4.203125 -5.609375 L 4.203125 0 L 1.015625 0 L 1.015625 -13.96875 Z M 9.09375 -13.96875 "/></g></g></g><g fill="#272424" fill-opacity="1"><g transform="translate(122.474457, 330.981662)"><g><path d="M 1.828125 -1.03125 C 0.867188 -1.894531 0.390625 -2.992188 0.390625 -4.328125 C 0.390625 -5.671875 0.890625 -6.773438 1.890625 -7.640625 C 2.898438 -8.503906 4.144531 -8.9375 5.625 -8.9375 C 7.082031 -8.9375 8.3125 -8.5 9.3125 -7.625 C 10.3125 -6.757812 10.8125 -5.660156 10.8125 -4.328125 C 10.8125 -3.003906 10.320312 -1.910156 9.34375 -1.046875 C 8.363281 -0.179688 7.125 0.25 5.625 0.25 C 4.0625 0.25 2.796875 -0.175781 1.828125 -1.03125 Z M 4.15625 -5.8125 C 3.769531 -5.425781 3.578125 -4.929688 3.578125 -4.328125 C 3.578125 -3.734375 3.757812 -3.242188 4.125 -2.859375 C 4.5 -2.484375 4.992188 -2.296875 5.609375 -2.296875 C 6.191406 -2.296875 6.671875 -2.488281 7.046875 -2.875 C 7.429688 -3.257812 7.625 -3.75 7.625 -4.34375 C 7.625 -4.9375 7.425781 -5.425781 7.03125 -5.8125 C 6.644531 -6.195312 6.171875 -6.390625 5.609375 -6.390625 C 5.035156 -6.390625 4.550781 -6.195312 4.15625 -5.8125 Z M 4.15625 -5.8125 "/></g></g></g><g fill="#272424" fill-opacity="1"><g transform="translate(142.420159, 330.981662)"><g><path d="M 1.828125 -1.03125 C 0.867188 -1.894531 0.390625 -2.992188 0.390625 -4.328125 C 0.390625 -5.671875 0.890625 -6.773438 1.890625 -7.640625 C 2.898438 -8.503906 4.144531 -8.9375 5.625 -8.9375 C 7.082031 -8.9375 8.3125 -8.5 9.3125 -7.625 C 10.3125 -6.757812 10.8125 -5.660156 10.8125 -4.328125 C 10.8125 -3.003906 10.320312 -1.910156 9.34375 -1.046875 C 8.363281 -0.179688 7.125 0.25 5.625 0.25 C 4.0625 0.25 2.796875 -0.175781 1.828125 -1.03125 Z M 4.15625 -5.8125 C 3.769531 -5.425781 3.578125 -4.929688 3.578125 -4.328125 C 3.578125 -3.734375 3.757812 -3.242188 4.125 -2.859375 C 4.5 -2.484375 4.992188 -2.296875 5.609375 -2.296875 C 6.191406 -2.296875 6.671875 -2.488281 7.046875 -2.875 C 7.429688 -3.257812 7.625 -3.75 7.625 -4.34375 C 7.625 -4.9375 7.425781 -5.425781 7.03125 -5.8125 C 6.644531 -6.195312 6.171875 -6.390625 5.609375 -6.390625 C 5.035156 -6.390625 4.550781 -6.195312 4.15625 -5.8125 Z M 4.15625 -5.8125 "/></g></g></g><g fill="#272424" fill-opacity="1"><g transform="translate(162.365858, 330.981662)"><g><path d="M 1.609375 -1.078125 C 0.796875 -1.960938 0.390625 -3.046875 0.390625 -4.328125 C 0.390625 -5.617188 0.796875 -6.707031 1.609375 -7.59375 C 2.421875 -8.488281 3.453125 -8.9375 4.703125 -8.9375 C 5.859375 -8.9375 6.804688 -8.578125 7.546875 -7.859375 L 7.546875 -14.5625 L 10.546875 -14.5625 L 10.546875 0 L 7.59375 0 L 7.59375 -0.984375 L 7.546875 -0.984375 C 6.804688 -0.160156 5.859375 0.25 4.703125 0.25 C 3.453125 0.25 2.421875 -0.191406 1.609375 -1.078125 Z M 4.15625 -5.8125 C 3.769531 -5.425781 3.578125 -4.929688 3.578125 -4.328125 C 3.578125 -3.734375 3.757812 -3.242188 4.125 -2.859375 C 4.5 -2.484375 4.992188 -2.296875 5.609375 -2.296875 C 6.191406 -2.296875 6.671875 -2.488281 7.046875 -2.875 C 7.429688 -3.257812 7.625 -3.75 7.625 -4.34375 C 7.625 -4.9375 7.425781 -5.425781 7.03125 -5.8125 C 6.644531 -6.195312 6.171875 -6.390625 5.609375 -6.390625 C 5.035156 -6.390625 4.550781 -6.195312 4.15625 -5.8125 Z M 4.15625 -5.8125 "/></g></g></g><g fill="#272424" fill-opacity="1"><g transform="translate(182.684241, 330.981662)"><g/></g></g><g fill="#272424" fill-opacity="1"><g transform="translate(196.056996, 330.981662)"><g><path d="M 12.5625 0 L 11.90625 -8.28125 L 11.828125 -8.28125 L 8.953125 -0.078125 L 7.0625 -0.078125 L 4.203125 -8.28125 L 4.109375 -8.28125 L 3.453125 0 L 0.265625 0 L 1.53125 -13.96875 L 4.90625 -13.96875 L 8.015625 -5.90625 L 11.109375 -13.96875 L 14.5 -13.96875 L 15.75 0 Z M 12.5625 0 "/></g></g></g><g fill="#272424" fill-opacity="1"><g transform="translate(220.830763, 330.981662)"><g><path d="M 9.8125 -3.921875 L 3.5 -3.921875 C 3.5 -3.316406 3.695312 -2.867188 4.09375 -2.578125 C 4.488281 -2.285156 4.921875 -2.140625 5.390625 -2.140625 C 5.867188 -2.140625 6.25 -2.203125 6.53125 -2.328125 C 6.820312 -2.460938 7.144531 -2.71875 7.5 -3.09375 L 9.671875 -2.015625 C 8.765625 -0.503906 7.265625 0.25 5.171875 0.25 C 3.859375 0.25 2.734375 -0.195312 1.796875 -1.09375 C 0.859375 -1.988281 0.390625 -3.066406 0.390625 -4.328125 C 0.390625 -5.597656 0.859375 -6.679688 1.796875 -7.578125 C 2.734375 -8.484375 3.859375 -8.9375 5.171875 -8.9375 C 6.546875 -8.9375 7.664062 -8.539062 8.53125 -7.75 C 9.394531 -6.957031 9.828125 -5.820312 9.828125 -4.34375 C 9.828125 -4.132812 9.820312 -3.992188 9.8125 -3.921875 Z M 3.59375 -5.59375 L 6.890625 -5.59375 C 6.828125 -6.039062 6.648438 -6.382812 6.359375 -6.625 C 6.066406 -6.875 5.695312 -7 5.25 -7 C 4.75 -7 4.351562 -6.867188 4.0625 -6.609375 C 3.769531 -6.347656 3.613281 -6.007812 3.59375 -5.59375 Z M 3.59375 -5.59375 "/></g></g></g><g fill="#272424" fill-opacity="1"><g transform="translate(239.793913, 330.981662)"><g><path d="M 1.015625 0 L 1.015625 -8.6875 L 4.015625 -8.6875 L 4.015625 -7.78125 L 4.046875 -7.78125 C 4.828125 -8.550781 5.65625 -8.9375 6.53125 -8.9375 C 6.96875 -8.9375 7.394531 -8.878906 7.8125 -8.765625 C 8.238281 -8.660156 8.644531 -8.488281 9.03125 -8.25 C 9.425781 -8.007812 9.742188 -7.671875 9.984375 -7.234375 C 10.222656 -6.804688 10.34375 -6.300781 10.34375 -5.71875 L 10.34375 0 L 7.34375 0 L 7.34375 -4.90625 C 7.34375 -5.363281 7.195312 -5.757812 6.90625 -6.09375 C 6.625 -6.4375 6.253906 -6.609375 5.796875 -6.609375 C 5.335938 -6.609375 4.925781 -6.429688 4.5625 -6.078125 C 4.195312 -5.734375 4.015625 -5.34375 4.015625 -4.90625 L 4.015625 0 Z M 1.015625 0 "/></g></g></g><g fill="#272424" fill-opacity="1"><g transform="translate(259.739608, 330.981662)"><g><path d="M 3.84375 -8.6875 L 3.84375 -4.5625 C 3.84375 -3.695312 3.972656 -3.082031 4.234375 -2.71875 C 4.492188 -2.363281 4.929688 -2.1875 5.546875 -2.1875 C 6.171875 -2.1875 6.613281 -2.363281 6.875 -2.71875 C 7.132812 -3.082031 7.265625 -3.695312 7.265625 -4.5625 L 7.265625 -8.6875 L 10.265625 -8.6875 L 10.265625 -3.828125 C 10.265625 -2.378906 9.890625 -1.335938 9.140625 -0.703125 C 8.390625 -0.0664062 7.191406 0.25 5.546875 0.25 C 3.910156 0.25 2.71875 -0.0664062 1.96875 -0.703125 C 1.21875 -1.335938 0.84375 -2.378906 0.84375 -3.828125 L 0.84375 -8.6875 Z M 3.84375 -8.6875 "/></g></g></g></svg>